<?xml version="1.0" encoding="UTF-8" standalone="no"?>
<!DOCTYPE svg PUBLIC "-//W3C//DTD SVG 1.1//EN" "http://www.w3.org/Graphics/SVG/1.1/DTD/svg11.dtd">
<svg width="100%" height="100%" viewBox="0 0 800 92" version="1.1" xmlns="http://www.w3.org/2000/svg" xmlns:xlink="http://www.w3.org/1999/xlink" xml:space="preserve" xmlns:serif="http://www.serif.com/" style="fill-rule:evenodd;clip-rule:evenodd;stroke-linejoin:round;stroke-miterlimit:2;">
    <g id="ieeeinec2025" transform="matrix(1,0,0,0.152352,0,0)">
        <rect x="0" y="0" width="800" height="600" style="fill:none;"/>
        <g transform="matrix(9.67607,0,0,63.5111,-654.735,-5096.44)">
            <rect x="67.975" y="80.619" width="1.404" height="8.568" style="fill:rgb(0,105,158);fill-rule:nonzero;"/>
            <path d="M71.059,80.619L71.059,89.187L77.443,89.187L77.443,87.987L72.463,87.987L72.463,85.395L76.951,85.395L76.951,84.195L72.463,84.195L72.463,81.819L77.239,81.819L77.239,80.619L71.059,80.619Z" style="fill:rgb(0,105,158);fill-rule:nonzero;"/>
            <path d="M78.763,80.619L78.763,89.187L85.147,89.187L85.147,87.987L80.167,87.987L80.167,85.395L84.655,85.395L84.655,84.195L80.167,84.195L80.167,81.819L84.943,81.819L84.943,80.619L78.763,80.619Z" style="fill:rgb(0,105,158);fill-rule:nonzero;"/>
            <path d="M86.467,80.619L86.467,89.187L92.851,89.187L92.851,87.987L87.871,87.987L87.871,85.395L92.359,85.395L92.359,84.195L87.871,84.195L87.871,81.819L92.647,81.819L92.647,80.619L86.467,80.619Z" style="fill:rgb(0,105,158);fill-rule:nonzero;"/>
            <rect x="94.171" y="80.619" width="1.404" height="8.568" style="fill:rgb(236,28,0);fill-rule:nonzero;"/>
            <path d="M97.255,80.619L97.255,89.187L98.659,89.187L98.659,82.923L98.707,82.923L102.991,89.187L104.359,89.187L104.359,80.619L102.943,80.619L102.943,86.799L102.895,86.799L98.659,80.619L97.255,80.619Z" style="fill:rgb(236,28,0);fill-rule:nonzero;"/>
            <path d="M106.039,80.619L106.039,89.187L112.423,89.187L112.423,87.987L107.443,87.987L107.443,85.395L111.931,85.395L111.931,84.195L107.443,84.195L107.443,81.819L112.219,81.819L112.219,80.619L106.039,80.619Z" style="fill:rgb(236,28,0);fill-rule:nonzero;"/>
            <path d="M117.463,80.451C116.095,80.451 115.051,80.895 114.331,81.807C113.695,82.599 113.383,83.643 113.383,84.915C113.383,86.211 113.683,87.243 114.295,88.011C114.991,88.899 116.059,89.355 117.487,89.355C118.411,89.355 119.203,89.091 119.863,88.563C120.571,87.999 121.015,87.219 121.207,86.211L119.839,86.211C119.671,86.859 119.383,87.351 118.975,87.675C118.591,87.963 118.087,88.119 117.475,88.119C116.539,88.119 115.843,87.819 115.399,87.243C114.991,86.703 114.787,85.923 114.787,84.915C114.787,83.931 114.991,83.163 115.411,82.611C115.867,81.987 116.539,81.687 117.439,81.687C118.039,81.687 118.531,81.807 118.915,82.071C119.311,82.335 119.575,82.743 119.719,83.307L121.087,83.307C120.955,82.443 120.583,81.747 119.959,81.243C119.311,80.715 118.471,80.451 117.463,80.451Z" style="fill:rgb(236,28,0);fill-rule:nonzero;"/>
            <path d="M125.419,80.451C124.495,80.451 123.751,80.763 123.187,81.387C122.635,81.975 122.359,82.743 122.347,83.703L123.751,83.703C123.775,83.031 123.919,82.515 124.183,82.179C124.447,81.819 124.843,81.639 125.371,81.639C125.863,81.639 126.235,81.747 126.487,81.975C126.727,82.203 126.859,82.551 126.859,83.019C126.859,83.499 126.667,83.955 126.295,84.375C126.055,84.627 125.671,84.951 125.119,85.335C124.123,86.019 123.463,86.547 123.151,86.907C122.575,87.555 122.299,88.311 122.299,89.187L128.275,89.187L128.275,87.951L124.051,87.951C124.243,87.519 124.771,87.015 125.647,86.439C126.487,85.875 127.087,85.419 127.423,85.059C127.975,84.447 128.263,83.775 128.263,83.031C128.263,82.263 127.999,81.651 127.471,81.171C126.931,80.691 126.247,80.451 125.419,80.451Z" style="fill:rgb(0,215,79);fill-rule:nonzero;"/>
            <path d="M132.487,80.451C131.479,80.451 130.699,80.859 130.147,81.699C129.619,82.491 129.355,83.559 129.355,84.903C129.355,86.247 129.619,87.315 130.147,88.107C130.699,88.935 131.479,89.355 132.487,89.355C133.483,89.355 134.263,88.935 134.827,88.107C135.355,87.315 135.619,86.247 135.619,84.903C135.619,83.559 135.355,82.491 134.827,81.699C134.263,80.859 133.483,80.451 132.487,80.451ZM132.487,81.639C133.159,81.639 133.639,82.011 133.927,82.779C134.119,83.295 134.215,84.003 134.215,84.903C134.215,85.791 134.119,86.499 133.927,87.027C133.639,87.783 133.159,88.167 132.487,88.167C131.803,88.167 131.323,87.783 131.047,87.027C130.855,86.499 130.759,85.791 130.759,84.903C130.759,84.003 130.855,83.295 131.047,82.779C131.323,82.011 131.803,81.639 132.487,81.639Z" style="fill:rgb(0,215,79);fill-rule:nonzero;"/>
            <path d="M139.819,80.451C138.895,80.451 138.151,80.763 137.587,81.387C137.035,81.975 136.759,82.743 136.747,83.703L138.151,83.703C138.175,83.031 138.319,82.515 138.583,82.179C138.847,81.819 139.243,81.639 139.771,81.639C140.263,81.639 140.635,81.747 140.887,81.975C141.127,82.203 141.259,82.551 141.259,83.019C141.259,83.499 141.067,83.955 140.695,84.375C140.455,84.627 140.071,84.951 139.519,85.335C138.523,86.019 137.863,86.547 137.551,86.907C136.975,87.555 136.699,88.311 136.699,89.187L142.675,89.187L142.675,87.951L138.451,87.951C138.643,87.519 139.171,87.015 140.047,86.439C140.887,85.875 141.487,85.419 141.823,85.059C142.375,84.447 142.663,83.775 142.663,83.031C142.663,82.263 142.399,81.651 141.871,81.171C141.331,80.691 140.647,80.451 139.819,80.451Z" style="fill:rgb(0,215,79);fill-rule:nonzero;"/>
            <path d="M144.391,80.619L143.923,85.443L145.231,85.443C145.399,85.143 145.627,84.927 145.927,84.783C146.191,84.651 146.515,84.591 146.887,84.591C147.439,84.591 147.871,84.747 148.159,85.083C148.447,85.407 148.603,85.863 148.603,86.439C148.603,86.967 148.423,87.387 148.087,87.699C147.739,88.011 147.307,88.167 146.803,88.167C146.335,88.167 145.963,88.059 145.699,87.867C145.387,87.639 145.207,87.291 145.147,86.823L143.767,86.823C143.827,87.615 144.163,88.251 144.787,88.719C145.339,89.139 146.011,89.355 146.791,89.355C147.643,89.355 148.375,89.103 148.999,88.599C149.671,88.035 150.007,87.315 150.007,86.427C150.007,85.503 149.743,84.771 149.239,84.243C148.735,83.715 148.075,83.451 147.271,83.451C146.887,83.451 146.539,83.511 146.227,83.631C145.879,83.751 145.579,83.943 145.315,84.207L145.279,84.207L145.519,81.855L149.611,81.855L149.611,80.619L144.391,80.619Z" style="fill:rgb(0,215,79);fill-rule:nonzero;"/>
        </g>
    </g>
</svg>
